<?xml version="1.0" encoding="utf-8"?>
<!-- Generator: Adobe Illustrator 21.0.2, SVG Export Plug-In . SVG Version: 6.00 Build 0)  -->
<svg version="1.1" id="Layer_1" xmlns="http://www.w3.org/2000/svg" xmlns:xlink="http://www.w3.org/1999/xlink" x="0px" y="0px"
	 viewBox="0 0 841.9 595.3" style="enable-background:new 0 0 841.9 595.3;" xml:space="preserve">
<style type="text/css">
	.st0{fill:#212534;}
	.st1{fill:#DA9904;}
	.st2{fill:#423E3E;}
</style>
<g>
	<g>
		<g>
			<path class="st0" d="M344.4,316H326c-1.5,0-2.4,0.8-2.6,2.3l-1.3,10.1h16l-0.5,4.1h-16l-1.3,10.1c-0.2,1.5,0.5,2.2,2,2.2h18.3
				l-0.6,4l-18.3,0.4c-4.5,0-6.5-2.2-5.9-6.7l3.2-24.3c0.6-4.5,3.2-6.7,7.7-6.7l18.3,0.4L344.4,316z"/>
			<path class="st0" d="M360.6,326.8h0.5l11.7-15.2h5.6l-15.2,18.8l10.2,18.9h-5.6l-7.7-15.2h-0.5l-12,15.2h-5.6l15.1-18.9
				l-10.2-18.8h5.6L360.6,326.8z"/>
			<path class="st0" d="M376.6,349.2l5-37.7h16.3c7,0,10,3.9,8.9,11.8c-1,7.9-5,11.9-12.1,11.9h-11.9l-1.8,14H376.6z M394.2,330.7
				c4.6,0,7.3-2.5,7.9-7.5c0.6-4.9-1.5-7.3-6.4-7.3h-10.3l-1.9,14.8H394.2z"/>
			<path class="st0" d="M423.4,335.1h-8.6l-1.9,14.2h-4.4l5-37.8h16.3c7,0,10,4,8.9,11.8c-1.2,7.3-4.6,11.2-10.3,11.5
				c2.2,4.8,4.9,9.7,8.1,14.5h-5.2C428.1,344.5,425.5,339.8,423.4,335.1z M426.3,330.9c4.6,0,7.3-2.6,7.9-7.7c0.7-5-1.4-7.6-6.3-7.6
				h-10.5l-2,15.3H426.3z"/>
			<path class="st0" d="M470.5,316h-18.4c-1.5,0-2.4,0.8-2.6,2.3l-1.3,10.1h16l-0.5,4.1h-16l-1.3,10.1c-0.2,1.5,0.5,2.2,2,2.2h18.3
				l-0.6,4l-18.3,0.4c-4.5,0-6.5-2.2-5.9-6.7l3.2-24.3c0.6-4.5,3.2-6.7,7.7-6.7l18.3,0.4L470.5,316z"/>
			<path class="st0" d="M496.7,312l-0.5,4l-10.7-0.1c-5.3,0-8.2,1.1-8.4,3.3l-0.6,3.9c-0.1,1.8,1.7,3.2,5.2,4.1l5,1.5
				c5.9,1.5,8.6,4.5,8.1,8.9l-0.4,3.2c-0.7,5.7-5,8.5-12.7,8.5l-12.4-0.5l0.6-4l12.1,0.1c4.8,0,7.4-1.3,7.8-4l0.4-3.2
				c0.2-1.9-1.5-3.3-5.2-4.4l-5.6-1.9c-5.1-1.6-7.5-4.3-7.3-8.2l0.6-3.9c0.7-5.2,5.2-7.8,13.5-7.8L496.7,312z"/>
			<path class="st0" d="M523.7,312l-0.5,4l-10.7-0.1c-5.3,0-8.2,1.1-8.4,3.3l-0.6,3.9c-0.1,1.8,1.7,3.2,5.2,4.1l5,1.5
				c5.9,1.5,8.6,4.5,8.1,8.9l-0.4,3.2c-0.7,5.7-5,8.5-12.7,8.5l-12.4-0.5l0.6-4l12.1,0.1c4.8,0,7.4-1.3,7.8-4l0.4-3.2
				c0.2-1.9-1.5-3.3-5.2-4.4l-5.6-1.9c-5.1-1.6-7.5-4.3-7.3-8.2l0.6-3.9c0.7-5.2,5.2-7.8,13.5-7.8L523.7,312z"/>
		</g>
		<path class="st1" d="M347.5,270.1l0.3-2.2h-27.3l-0.8,6.1h17.6l-20.1,26.4c-0.7,1.1-1.2,2.1-1.3,3.2l-0.3,2.2h27.2l0.8-6.1h-17.6
			l20.1-26.4C346.9,272.2,347.4,271.1,347.5,270.1z"/>
		<path class="st1" d="M366.7,267.8h-3.3c-8.7,0-13.7,5.5-15.2,16.6l-0.6,4.9c-1.5,11,2.1,16.4,10.8,16.4h3.3
			c8.7,0,13.7-5.5,15.2-16.4l0.6-4.9C378.9,273.3,375.3,267.8,366.7,267.8z M370.2,284.5l-0.6,4.6c-1,7.2-3.3,10.8-6.9,10.8h-3.5
			c-3.8,0-5.2-3.6-4.3-10.8l0.6-4.6c1-7.2,3.3-10.8,7.2-10.8h3.5C369.8,273.7,371.1,277.3,370.2,284.5z"/>
		<g>
			<path class="st1" d="M510.2,251.7c19-16,12.3-27.8,12.3-27.8c-9.5,19.2-27.9,26.1-39.7,30.7c-11.1,4.4-49.3,13.2-69.5,13.1
				c0,0,0,0,0,0h-7.5c-3.2,10.4-7.5,20.7-12.8,31.1h-0.2c-2.5-10.4-3.9-20.7-4.3-31.1h-7.4c0.7,11.9,2.5,23.7,5.3,35.6
				c0.3,1.6,1.4,2.4,3.2,2.4h4.9c1.7,0,3-0.8,3.7-2.3c2.7-5.3,5.2-10.6,7.5-15.9c0.3-0.7,0.6-1.4,1-2.1
				C420.4,261.8,487.3,271.1,510.2,251.7z"/>
			<path class="st1" d="M464.1,270.6c-34.5,3.2-52.9,12.3-52.9,12.3s13.7-4,54.5-4.5c40.8-0.5,47.9-23.5,47.9-23.5
				C512.7,256.3,498.6,267.4,464.1,270.6z"/>
			<path class="st1" d="M456.8,282.1c-30-0.3-46.6,5.9-46.6,5.9s12.2-2.2,47.3,1c35.2,3.2,43.3-16,43.3-16
				C499.9,274.1,486.8,282.4,456.8,282.1z"/>
			<path class="st1" d="M451.5,291.3c-26.6-2.6-41.8,1.6-41.8,1.6s11-1,41.9,4.6c31,5.6,39.7-10.9,39.7-10.9
				C490.4,287.6,478.1,293.9,451.5,291.3z"/>
			<path class="st1" d="M439,299.4c-17.5-3.9-28-2.3-28-2.3s7.4,0.2,27.6,6.4c20.2,6.2,27.3-4,27.3-4
				C465.2,300,456.5,303.2,439,299.4z"/>
		</g>
	</g>
	<g>
		<path class="st2" d="M315.6,371.1l2.6-12.3h1.5l-2.6,12.3H315.6z"/>
		<path class="st2" d="M321.5,371.1h-1.4l1.8-8.7h1.2v1.2h0c0.4-0.4,0.8-0.8,1.3-1c0.5-0.3,1.1-0.4,1.7-0.4c0.3,0,0.7,0,1,0.1
			c0.3,0.1,0.5,0.2,0.7,0.4c0.2,0.2,0.4,0.4,0.5,0.7c0.1,0.3,0.2,0.6,0.2,0.9c0,0.2,0,0.5-0.1,0.8c0,0.3-0.1,0.5-0.2,0.8l-1.1,5.3
			h-1.4l1.1-5.4c0.1-0.4,0.1-0.8,0.1-1.1c0-0.2,0-0.4-0.1-0.6c-0.1-0.2-0.2-0.3-0.3-0.4c-0.1-0.1-0.3-0.2-0.4-0.2
			c-0.2,0-0.3-0.1-0.5-0.1c-0.4,0-0.8,0.1-1.1,0.2c-0.4,0.1-0.7,0.4-0.9,0.6c-0.3,0.3-0.5,0.6-0.7,0.9c-0.2,0.4-0.3,0.7-0.4,1.2
			L321.5,371.1z"/>
		<path class="st2" d="M334.2,371.2c-0.1,0-0.4,0.1-0.6,0.1c-0.3,0-0.6,0.1-0.8,0.1c-0.8,0-1.3-0.2-1.7-0.5
			c-0.4-0.3-0.5-0.7-0.5-1.3c0-0.2,0-0.5,0.1-0.8l1.1-5.2H330l0.3-1.2h1.7l0.5-2.4h1.4l-0.5,2.4h2.3l-0.2,1.2h-2.3l-1,4.9
			c0,0.2-0.1,0.3-0.1,0.4c0,0.1,0,0.2,0,0.3c0,0.3,0.1,0.5,0.3,0.7c0.2,0.1,0.5,0.2,0.9,0.2c0.2,0,0.4,0,0.7-0.1
			c0.3,0,0.5-0.1,0.7-0.1L334.2,371.2z"/>
		<path class="st2" d="M343.2,364.4c0,0.5-0.1,1-0.4,1.4c-0.3,0.4-0.7,0.7-1.2,0.9c-0.5,0.2-1.1,0.4-1.9,0.5
			c-0.7,0.1-1.6,0.2-2.5,0.2c0,0.1,0,0.1,0,0.2c0,0.1,0,0.1,0,0.2c0,0.8,0.2,1.4,0.6,1.7c0.4,0.4,1,0.6,1.8,0.6c0.2,0,0.4,0,0.6,0
			c0.2,0,0.4-0.1,0.7-0.1c0.2-0.1,0.4-0.1,0.6-0.2c0.2-0.1,0.4-0.1,0.6-0.2l-0.3,1.3c-0.3,0.1-0.7,0.3-1.1,0.4
			c-0.4,0.1-0.9,0.1-1.4,0.1c-0.6,0-1.2-0.1-1.6-0.3s-0.8-0.4-1.1-0.7c-0.3-0.3-0.5-0.7-0.6-1.1c-0.1-0.4-0.2-0.9-0.2-1.4
			c0-0.5,0-0.9,0.1-1.4c0.1-0.5,0.2-0.9,0.4-1.3c0.2-0.4,0.4-0.8,0.7-1.2c0.3-0.4,0.6-0.7,0.9-0.9c0.3-0.3,0.7-0.5,1.2-0.6
			c0.4-0.2,0.9-0.2,1.4-0.2c0.4,0,0.7,0,1,0.1c0.3,0.1,0.6,0.2,0.9,0.4c0.3,0.2,0.4,0.4,0.6,0.7C343.2,363.7,343.2,364,343.2,364.4z
			 M337.5,366.1c0.7,0,1.3,0,1.8-0.1c0.5-0.1,1-0.2,1.3-0.3c0.4-0.1,0.6-0.3,0.8-0.5c0.2-0.2,0.3-0.5,0.3-0.8c0-0.1,0-0.3-0.1-0.4
			c-0.1-0.1-0.1-0.2-0.2-0.3s-0.2-0.2-0.4-0.2c-0.2-0.1-0.3-0.1-0.6-0.1c-0.3,0-0.7,0.1-1,0.2c-0.3,0.1-0.6,0.3-0.9,0.6
			c-0.3,0.2-0.5,0.5-0.7,0.9C337.8,365.3,337.6,365.7,337.5,366.1z"/>
		<path class="st2" d="M350,363.6c-0.2,0-0.4,0-0.6,0c-0.4,0-0.8,0.1-1.2,0.2c-0.3,0.1-0.6,0.3-0.9,0.6c-0.3,0.2-0.5,0.5-0.6,0.9
			c-0.2,0.3-0.3,0.7-0.4,1.1l-1,4.8h-1.4l1.8-8.7h1.2v1.2h0c0.1-0.2,0.3-0.4,0.5-0.6c0.2-0.2,0.4-0.3,0.6-0.4
			c0.2-0.1,0.5-0.2,0.7-0.3s0.5-0.1,0.8-0.1c0.1,0,0.2,0,0.3,0c0.1,0,0.2,0,0.3,0L350,363.6z"/>
		<path class="st2" d="M351.2,371.1h-1.4l1.8-8.7h1.2v1.2h0c0.4-0.4,0.8-0.8,1.3-1c0.5-0.3,1.1-0.4,1.7-0.4c0.3,0,0.7,0,1,0.1
			c0.3,0.1,0.5,0.2,0.7,0.4c0.2,0.2,0.4,0.4,0.5,0.7c0.1,0.3,0.2,0.6,0.2,0.9c0,0.2,0,0.5-0.1,0.8c0,0.3-0.1,0.5-0.2,0.8l-1.1,5.3
			h-1.4l1.1-5.4c0.1-0.4,0.1-0.8,0.1-1.1c0-0.2,0-0.4-0.1-0.6c-0.1-0.2-0.2-0.3-0.3-0.4c-0.1-0.1-0.3-0.2-0.4-0.2
			c-0.2,0-0.3-0.1-0.5-0.1c-0.4,0-0.8,0.1-1.1,0.2c-0.4,0.1-0.7,0.4-0.9,0.6c-0.3,0.3-0.5,0.6-0.7,0.9c-0.2,0.4-0.3,0.7-0.4,1.2
			L351.2,371.1z"/>
		<path class="st2" d="M364.8,369.7c-0.2,0.3-0.4,0.6-0.7,0.8s-0.5,0.4-0.7,0.5c-0.2,0.1-0.5,0.2-0.7,0.3c-0.2,0.1-0.5,0.1-0.7,0.1
			c-0.4,0-0.7-0.1-1-0.2c-0.3-0.1-0.5-0.3-0.7-0.6c-0.2-0.3-0.4-0.6-0.5-0.9c-0.1-0.4-0.2-0.8-0.2-1.2c0-0.5,0-1,0.1-1.5
			c0.1-0.5,0.2-1,0.4-1.4c0.2-0.5,0.4-0.9,0.6-1.3c0.3-0.4,0.5-0.8,0.9-1.1c0.3-0.3,0.7-0.5,1.1-0.7c0.4-0.2,0.8-0.3,1.3-0.3
			c0.5,0,0.9,0.1,1.2,0.3c0.4,0.2,0.6,0.5,0.8,0.8h0l0.4-0.9h1.2l-1.4,6.7c0,0.2-0.1,0.4-0.1,0.5c0,0.1,0,0.3,0.1,0.3
			c0.1,0.1,0.2,0.1,0.4,0.1c0.2,0,0.4,0,0.6-0.1l-0.2,1.2c-0.3,0.1-0.5,0.1-0.9,0.1c-0.5,0-0.9-0.1-1.1-0.4
			C364.9,370.7,364.8,370.2,364.8,369.7L364.8,369.7z M365.8,364.3c-0.1-0.1-0.2-0.2-0.3-0.3c-0.1-0.1-0.2-0.2-0.4-0.3
			c-0.1-0.1-0.3-0.2-0.5-0.2c-0.2-0.1-0.4-0.1-0.6-0.1c-0.4,0-0.7,0.1-1,0.2c-0.3,0.2-0.6,0.4-0.8,0.6c-0.2,0.3-0.4,0.6-0.6,0.9
			c-0.2,0.3-0.3,0.7-0.4,1c-0.1,0.4-0.2,0.7-0.2,1.1c-0.1,0.3-0.1,0.7-0.1,1c0,0.4,0,0.7,0.1,1s0.2,0.4,0.3,0.6
			c0.1,0.1,0.3,0.2,0.4,0.3c0.2,0.1,0.3,0.1,0.5,0.1c0.3,0,0.6-0.1,0.9-0.2c0.3-0.2,0.6-0.4,0.9-0.7c0.3-0.3,0.5-0.7,0.7-1.1
			c0.2-0.4,0.4-0.9,0.5-1.5L365.8,364.3z"/>
		<path class="st2" d="M373.2,371.2c-0.1,0-0.4,0.1-0.6,0.1c-0.3,0-0.6,0.1-0.8,0.1c-0.8,0-1.3-0.2-1.7-0.5
			c-0.4-0.3-0.5-0.7-0.5-1.3c0-0.2,0-0.5,0.1-0.8l1.1-5.2H369l0.3-1.2h1.7l0.5-2.4h1.4l-0.5,2.4h2.3l-0.2,1.2h-2.3l-1,4.9
			c0,0.2-0.1,0.3-0.1,0.4c0,0.1,0,0.2,0,0.3c0,0.3,0.1,0.5,0.3,0.7c0.2,0.1,0.5,0.2,0.9,0.2c0.2,0,0.4,0,0.7-0.1
			c0.3,0,0.5-0.1,0.7-0.1L373.2,371.2z"/>
		<path class="st2" d="M374.8,371.1l1.8-8.7h1.4l-1.8,8.7H374.8z M377,360.4l0.3-1.6h1.5l-0.3,1.6H377z"/>
		<path class="st2" d="M386.8,365.6c0,0.4,0,0.8-0.1,1.2c-0.1,0.4-0.2,0.9-0.4,1.3c-0.2,0.4-0.4,0.8-0.6,1.2c-0.3,0.4-0.6,0.7-0.9,1
			c-0.4,0.3-0.8,0.5-1.2,0.7c-0.4,0.2-1,0.3-1.5,0.3c-0.5,0-0.9-0.1-1.3-0.2c-0.4-0.1-0.7-0.4-1-0.6c-0.3-0.3-0.5-0.6-0.6-1
			c-0.2-0.4-0.2-0.9-0.2-1.4c0-0.4,0-0.8,0.1-1.2c0.1-0.4,0.2-0.9,0.4-1.3s0.4-0.9,0.6-1.3c0.3-0.4,0.6-0.8,0.9-1.1
			c0.3-0.3,0.7-0.6,1.2-0.7c0.5-0.2,1-0.3,1.5-0.3c0.5,0,0.9,0.1,1.3,0.2c0.4,0.1,0.7,0.4,1,0.6c0.3,0.3,0.5,0.6,0.6,1.1
			S386.8,365,386.8,365.6z M383.6,363.4c-0.4,0-0.7,0.1-1,0.2c-0.3,0.1-0.6,0.3-0.8,0.5c-0.2,0.2-0.4,0.5-0.6,0.8
			c-0.2,0.3-0.3,0.6-0.5,1c-0.1,0.3-0.2,0.7-0.3,1.1c-0.1,0.4-0.1,0.7-0.1,1c0,0.3,0,0.6,0.1,0.9c0.1,0.3,0.2,0.5,0.3,0.7
			c0.1,0.2,0.3,0.3,0.6,0.4c0.2,0.1,0.5,0.2,0.8,0.2c0.3,0,0.7-0.1,1-0.2c0.3-0.1,0.6-0.3,0.8-0.5c0.2-0.2,0.4-0.5,0.6-0.8
			c0.2-0.3,0.3-0.6,0.5-1c0.1-0.3,0.2-0.7,0.3-1.1c0.1-0.4,0.1-0.7,0.1-1.1c0-0.3,0-0.6-0.1-0.9c-0.1-0.3-0.2-0.5-0.3-0.7
			c-0.1-0.2-0.3-0.3-0.6-0.4C384.1,363.4,383.9,363.4,383.6,363.4z"/>
		<path class="st2" d="M389.2,371.1h-1.4l1.8-8.7h1.2v1.2h0c0.4-0.4,0.8-0.8,1.3-1c0.5-0.3,1.1-0.4,1.7-0.4c0.3,0,0.7,0,1,0.1
			c0.3,0.1,0.5,0.2,0.7,0.4c0.2,0.2,0.4,0.4,0.5,0.7c0.1,0.3,0.2,0.6,0.2,0.9c0,0.2,0,0.5-0.1,0.8c0,0.3-0.1,0.5-0.2,0.8l-1.1,5.3
			h-1.4l1.1-5.4c0.1-0.4,0.1-0.8,0.1-1.1c0-0.2,0-0.4-0.1-0.6c-0.1-0.2-0.2-0.3-0.3-0.4c-0.1-0.1-0.3-0.2-0.4-0.2
			c-0.2,0-0.3-0.1-0.5-0.1c-0.4,0-0.8,0.1-1.1,0.2c-0.4,0.1-0.7,0.4-0.9,0.6c-0.3,0.3-0.5,0.6-0.7,0.9c-0.2,0.4-0.3,0.7-0.4,1.2
			L389.2,371.1z"/>
		<path class="st2" d="M402.8,369.7c-0.2,0.3-0.4,0.6-0.7,0.8c-0.2,0.2-0.5,0.4-0.7,0.5s-0.5,0.2-0.7,0.3c-0.2,0.1-0.5,0.1-0.7,0.1
			c-0.4,0-0.7-0.1-1-0.2c-0.3-0.1-0.5-0.3-0.7-0.6c-0.2-0.3-0.4-0.6-0.5-0.9c-0.1-0.4-0.2-0.8-0.2-1.2c0-0.5,0-1,0.1-1.5
			c0.1-0.5,0.2-1,0.4-1.4c0.2-0.5,0.4-0.9,0.6-1.3c0.3-0.4,0.5-0.8,0.9-1.1s0.7-0.5,1.1-0.7c0.4-0.2,0.8-0.3,1.3-0.3
			c0.5,0,0.9,0.1,1.2,0.3c0.4,0.2,0.6,0.5,0.8,0.8h0l0.4-0.9h1.2l-1.4,6.7c0,0.2-0.1,0.4-0.1,0.5c0,0.1,0,0.3,0.1,0.3
			c0.1,0.1,0.2,0.1,0.4,0.1c0.2,0,0.4,0,0.6-0.1l-0.2,1.2c-0.3,0.1-0.5,0.1-0.9,0.1c-0.5,0-0.9-0.1-1.1-0.4
			C402.9,370.7,402.8,370.2,402.8,369.7L402.8,369.7z M403.8,364.3c-0.1-0.1-0.2-0.2-0.3-0.3c-0.1-0.1-0.2-0.2-0.4-0.3
			c-0.1-0.1-0.3-0.2-0.5-0.2c-0.2-0.1-0.4-0.1-0.6-0.1c-0.4,0-0.7,0.1-1,0.2c-0.3,0.2-0.6,0.4-0.8,0.6c-0.2,0.3-0.4,0.6-0.6,0.9
			c-0.2,0.3-0.3,0.7-0.4,1c-0.1,0.4-0.2,0.7-0.2,1.1c-0.1,0.3-0.1,0.7-0.1,1c0,0.4,0,0.7,0.1,1s0.2,0.4,0.3,0.6
			c0.1,0.1,0.3,0.2,0.4,0.3c0.2,0.1,0.3,0.1,0.5,0.1c0.3,0,0.6-0.1,0.9-0.2c0.3-0.2,0.6-0.4,0.9-0.7c0.3-0.3,0.5-0.7,0.7-1.1
			c0.2-0.4,0.4-0.9,0.5-1.5L403.8,364.3z"/>
		<path class="st2" d="M409.3,371.2c-0.1,0-0.2,0-0.4,0.1c-0.2,0-0.3,0-0.5,0c-0.5,0-0.9-0.1-1.2-0.3c-0.3-0.2-0.4-0.5-0.4-1
			c0-0.2,0-0.4,0.1-0.6l2.4-11.5h1.4l-2.3,11.2c-0.1,0.3-0.1,0.5-0.1,0.6c0,0.2,0,0.3,0.1,0.3c0.1,0.1,0.2,0.1,0.4,0.1
			s0.4,0,0.6-0.1L409.3,371.2z"/>
		<path class="st2" d="M422.5,359.9c-0.6,0-1.1,0.1-1.6,0.3c-0.5,0.2-0.9,0.4-1.3,0.7c-0.4,0.3-0.7,0.7-1.1,1.1
			c-0.3,0.4-0.6,0.9-0.8,1.4s-0.4,1-0.5,1.5c-0.1,0.5-0.2,1.1-0.2,1.6c0,0.7,0.1,1.3,0.3,1.8c0.2,0.5,0.5,0.8,0.8,1.1
			c0.3,0.3,0.7,0.4,1.2,0.5c0.4,0.1,0.9,0.1,1.3,0.1c0.5,0,1,0,1.4-0.1c0.5-0.1,0.9-0.2,1.2-0.3l-0.3,1.4c-0.4,0.1-0.8,0.2-1.3,0.3
			c-0.5,0.1-0.9,0.1-1.4,0.1c-0.7,0-1.3-0.1-1.9-0.3c-0.6-0.2-1.1-0.5-1.6-0.9c-0.4-0.4-0.8-0.9-1-1.5c-0.3-0.6-0.4-1.3-0.4-2.1
			c0-0.6,0.1-1.2,0.2-1.9c0.1-0.6,0.3-1.2,0.6-1.8c0.3-0.6,0.6-1.1,1-1.7c0.4-0.5,0.8-1,1.4-1.4c0.5-0.4,1.1-0.7,1.8-0.9
			c0.7-0.2,1.4-0.3,2.2-0.3c0.5,0,1,0,1.5,0.1c0.4,0.1,0.8,0.2,1.2,0.3l-0.3,1.3c-0.3-0.1-0.7-0.2-1.1-0.3
			C423.4,360,423,359.9,422.5,359.9z"/>
		<path class="st2" d="M433.1,365.6c0,0.4,0,0.8-0.1,1.2c-0.1,0.4-0.2,0.9-0.4,1.3c-0.2,0.4-0.4,0.8-0.6,1.2c-0.3,0.4-0.6,0.7-0.9,1
			c-0.4,0.3-0.8,0.5-1.2,0.7c-0.4,0.2-1,0.3-1.5,0.3c-0.5,0-0.9-0.1-1.3-0.2c-0.4-0.1-0.7-0.4-1-0.6c-0.3-0.3-0.5-0.6-0.6-1
			c-0.1-0.4-0.2-0.9-0.2-1.4c0-0.4,0-0.8,0.1-1.2s0.2-0.9,0.4-1.3s0.4-0.9,0.6-1.3c0.3-0.4,0.6-0.8,0.9-1.1c0.3-0.3,0.8-0.6,1.2-0.7
			s1-0.3,1.5-0.3c0.5,0,0.9,0.1,1.3,0.2c0.4,0.1,0.7,0.4,1,0.6s0.5,0.6,0.6,1.1C433,364.5,433.1,365,433.1,365.6z M429.9,363.4
			c-0.4,0-0.7,0.1-1,0.2c-0.3,0.1-0.6,0.3-0.8,0.5c-0.2,0.2-0.4,0.5-0.6,0.8c-0.2,0.3-0.3,0.6-0.5,1c-0.1,0.3-0.2,0.7-0.3,1.1
			c-0.1,0.4-0.1,0.7-0.1,1c0,0.3,0,0.6,0.1,0.9c0.1,0.3,0.2,0.5,0.3,0.7c0.1,0.2,0.3,0.3,0.6,0.4c0.2,0.1,0.5,0.2,0.8,0.2
			c0.3,0,0.7-0.1,1-0.2s0.6-0.3,0.8-0.5c0.2-0.2,0.4-0.5,0.6-0.8c0.2-0.3,0.3-0.6,0.5-1c0.1-0.3,0.2-0.7,0.3-1.1
			c0.1-0.4,0.1-0.7,0.1-1.1c0-0.3,0-0.6-0.1-0.9c-0.1-0.3-0.2-0.5-0.3-0.7c-0.1-0.2-0.3-0.3-0.6-0.4
			C430.4,363.4,430.2,363.4,429.9,363.4z"/>
		<path class="st2" d="M437.6,371.3c-0.5,0-1-0.1-1.4-0.2c-0.4-0.1-0.7-0.3-0.9-0.5c-0.2-0.2-0.4-0.5-0.6-0.8
			c-0.1-0.3-0.2-0.7-0.2-1c0-0.1,0-0.3,0-0.4c0-0.1,0-0.3,0.1-0.5l1.1-5.4h1.4l-1.1,5.4c0,0.2-0.1,0.3-0.1,0.4c0,0.1,0,0.3,0,0.4
			c0,0.2,0,0.4,0.1,0.6c0.1,0.2,0.2,0.4,0.3,0.5c0.1,0.1,0.3,0.2,0.5,0.3c0.2,0.1,0.5,0.1,0.8,0.1c0.4,0,0.7-0.1,1-0.2
			c0.3-0.1,0.5-0.3,0.7-0.5c0.2-0.2,0.4-0.4,0.5-0.7c0.1-0.3,0.2-0.6,0.3-0.9l1.1-5.4h1.4l-1.2,5.7c-0.1,0.4-0.2,0.7-0.3,1
			c-0.1,0.3-0.3,0.6-0.5,0.9c-0.3,0.4-0.7,0.7-1.2,1C439,371.2,438.4,371.3,437.6,371.3z"/>
		<path class="st2" d="M449.3,363.6c-0.2,0-0.4,0-0.6,0c-0.4,0-0.8,0.1-1.2,0.2c-0.3,0.1-0.6,0.3-0.9,0.6c-0.3,0.2-0.5,0.5-0.6,0.9
			c-0.2,0.3-0.3,0.7-0.4,1.1l-1,4.8h-1.4l1.8-8.7h1.2v1.2h0c0.1-0.2,0.3-0.4,0.5-0.6c0.2-0.2,0.4-0.3,0.6-0.4
			c0.2-0.1,0.5-0.2,0.7-0.3c0.3-0.1,0.5-0.1,0.8-0.1c0.1,0,0.2,0,0.3,0c0.1,0,0.2,0,0.3,0L449.3,363.6z"/>
		<path class="st2" d="M449.2,371.1l1.8-8.7h1.4l-1.8,8.7H449.2z M451.4,360.4l0.3-1.6h1.5l-0.3,1.6H451.4z"/>
		<path class="st2" d="M460.8,364.4c0,0.5-0.1,1-0.4,1.4c-0.3,0.4-0.7,0.7-1.2,0.9c-0.5,0.2-1.1,0.4-1.9,0.5
			c-0.7,0.1-1.6,0.2-2.5,0.2c0,0.1,0,0.1,0,0.2c0,0.1,0,0.1,0,0.2c0,0.8,0.2,1.4,0.6,1.7c0.4,0.4,1,0.6,1.8,0.6c0.2,0,0.4,0,0.6,0
			c0.2,0,0.4-0.1,0.7-0.1c0.2-0.1,0.4-0.1,0.6-0.2c0.2-0.1,0.4-0.1,0.6-0.2l-0.3,1.3c-0.3,0.1-0.7,0.3-1.1,0.4
			c-0.4,0.1-0.9,0.1-1.4,0.1c-0.6,0-1.2-0.1-1.6-0.3s-0.8-0.4-1.1-0.7c-0.3-0.3-0.5-0.7-0.6-1.1c-0.1-0.4-0.2-0.9-0.2-1.4
			c0-0.5,0-0.9,0.1-1.4c0.1-0.5,0.2-0.9,0.4-1.3c0.2-0.4,0.4-0.8,0.7-1.2c0.3-0.4,0.6-0.7,0.9-0.9c0.3-0.3,0.7-0.5,1.2-0.6
			c0.4-0.2,0.9-0.2,1.4-0.2c0.4,0,0.7,0,1,0.1c0.3,0.1,0.6,0.2,0.9,0.4c0.3,0.2,0.4,0.4,0.6,0.7C460.7,363.7,460.8,364,460.8,364.4z
			 M455,366.1c0.7,0,1.3,0,1.8-0.1c0.5-0.1,1-0.2,1.3-0.3c0.4-0.1,0.6-0.3,0.8-0.5c0.2-0.2,0.3-0.5,0.3-0.8c0-0.1,0-0.3-0.1-0.4
			c-0.1-0.1-0.1-0.2-0.2-0.3c-0.1-0.1-0.2-0.2-0.4-0.2c-0.2-0.1-0.3-0.1-0.6-0.1c-0.3,0-0.7,0.1-1,0.2c-0.3,0.1-0.6,0.3-0.9,0.6
			c-0.3,0.2-0.5,0.5-0.7,0.9C455.3,365.3,455.2,365.7,455,366.1z"/>
		<path class="st2" d="M467.5,363.6c-0.2,0-0.4,0-0.6,0c-0.4,0-0.8,0.1-1.2,0.2c-0.3,0.1-0.6,0.3-0.9,0.6c-0.3,0.2-0.5,0.5-0.6,0.9
			c-0.2,0.3-0.3,0.7-0.4,1.1l-1,4.8h-1.4l1.8-8.7h1.2v1.2h0c0.1-0.2,0.3-0.4,0.5-0.6c0.2-0.2,0.4-0.3,0.6-0.4
			c0.2-0.1,0.5-0.2,0.7-0.3c0.3-0.1,0.5-0.1,0.8-0.1c0.1,0,0.2,0,0.3,0c0.1,0,0.2,0,0.3,0L467.5,363.6z"/>
		<path class="st2" d="M472.6,362.4c0-0.6,0.1-1.1,0.3-1.6c0.2-0.5,0.5-0.9,0.9-1.2c0.4-0.3,0.8-0.6,1.4-0.8
			c0.5-0.2,1.2-0.3,1.8-0.3c0.7,0,1.4,0.1,2,0.2c0.6,0.1,1.1,0.3,1.6,0.5l-0.3,1.4c-0.5-0.2-1-0.4-1.5-0.5c-0.6-0.1-1.1-0.2-1.7-0.2
			c-0.4,0-0.8,0.1-1.2,0.2c-0.4,0.1-0.7,0.3-0.9,0.4c-0.3,0.2-0.4,0.4-0.6,0.7c-0.1,0.3-0.2,0.6-0.2,0.9c0,0.3,0.1,0.6,0.2,0.8
			c0.1,0.2,0.3,0.4,0.5,0.5c0.2,0.1,0.4,0.3,0.7,0.4c0.3,0.1,0.5,0.2,0.8,0.3c0.4,0.1,0.9,0.3,1.3,0.4c0.4,0.2,0.8,0.3,1.1,0.6
			c0.3,0.2,0.5,0.5,0.7,0.9c0.2,0.4,0.3,0.8,0.3,1.3c0,0.6-0.1,1.2-0.4,1.7s-0.6,0.9-1,1.3c-0.4,0.3-1,0.6-1.6,0.8
			c-0.6,0.2-1.3,0.3-2.1,0.3c-0.4,0-0.8,0-1.2-0.1c-0.4-0.1-0.7-0.1-1.1-0.2c-0.3-0.1-0.6-0.2-0.8-0.3c-0.2-0.1-0.4-0.2-0.5-0.3
			l0.3-1.3c0.2,0.1,0.4,0.2,0.7,0.3c0.2,0.1,0.5,0.2,0.8,0.3c0.3,0.1,0.6,0.1,0.9,0.2c0.3,0,0.6,0.1,0.9,0.1c0.6,0,1.1-0.1,1.6-0.2
			c0.4-0.1,0.8-0.3,1.1-0.5c0.3-0.2,0.5-0.5,0.7-0.8c0.2-0.3,0.2-0.7,0.2-1.1c0-0.3-0.1-0.6-0.2-0.9c-0.2-0.2-0.4-0.4-0.6-0.6
			c-0.3-0.2-0.5-0.3-0.9-0.4c-0.3-0.1-0.7-0.2-1-0.3c-0.4-0.1-0.7-0.2-1.1-0.4c-0.3-0.2-0.6-0.3-0.9-0.6c-0.3-0.2-0.5-0.5-0.6-0.8
			C472.7,363.2,472.6,362.9,472.6,362.4z"/>
		<path class="st2" d="M488.9,364.4c0,0.5-0.1,1-0.4,1.4c-0.3,0.4-0.7,0.7-1.2,0.9c-0.5,0.2-1.1,0.4-1.9,0.5
			c-0.7,0.1-1.6,0.2-2.5,0.2c0,0.1,0,0.1,0,0.2c0,0.1,0,0.1,0,0.2c0,0.8,0.2,1.4,0.6,1.7c0.4,0.4,1,0.6,1.8,0.6c0.2,0,0.4,0,0.6,0
			c0.2,0,0.4-0.1,0.7-0.1c0.2-0.1,0.4-0.1,0.6-0.2c0.2-0.1,0.4-0.1,0.6-0.2l-0.3,1.3c-0.3,0.1-0.7,0.3-1.1,0.4
			c-0.4,0.1-0.9,0.1-1.4,0.1c-0.6,0-1.2-0.1-1.6-0.3s-0.8-0.4-1.1-0.7c-0.3-0.3-0.5-0.7-0.6-1.1c-0.1-0.4-0.2-0.9-0.2-1.4
			c0-0.5,0-0.9,0.1-1.4c0.1-0.5,0.2-0.9,0.4-1.3c0.2-0.4,0.4-0.8,0.7-1.2c0.3-0.4,0.6-0.7,0.9-0.9c0.3-0.3,0.7-0.5,1.2-0.6
			c0.4-0.2,0.9-0.2,1.4-0.2c0.4,0,0.7,0,1,0.1c0.3,0.1,0.6,0.2,0.9,0.4c0.3,0.2,0.4,0.4,0.6,0.7C488.8,363.7,488.9,364,488.9,364.4z
			 M483.2,366.1c0.7,0,1.3,0,1.8-0.1c0.5-0.1,1-0.2,1.3-0.3c0.4-0.1,0.6-0.3,0.8-0.5c0.2-0.2,0.3-0.5,0.3-0.8c0-0.1,0-0.3-0.1-0.4
			c-0.1-0.1-0.1-0.2-0.2-0.3c-0.1-0.1-0.2-0.2-0.4-0.2c-0.2-0.1-0.3-0.1-0.6-0.1c-0.3,0-0.7,0.1-1,0.2c-0.3,0.1-0.6,0.3-0.9,0.6
			c-0.3,0.2-0.5,0.5-0.7,0.9C483.4,365.3,483.3,365.7,483.2,366.1z"/>
		<path class="st2" d="M495.6,363.6c-0.2,0-0.4,0-0.6,0c-0.4,0-0.8,0.1-1.2,0.2c-0.3,0.1-0.6,0.3-0.9,0.6c-0.3,0.2-0.5,0.5-0.6,0.9
			c-0.2,0.3-0.3,0.7-0.4,1.1l-1,4.8h-1.4l1.8-8.7h1.2v1.2h0c0.1-0.2,0.3-0.4,0.5-0.6c0.2-0.2,0.4-0.3,0.6-0.4
			c0.2-0.1,0.5-0.2,0.7-0.3c0.3-0.1,0.5-0.1,0.8-0.1c0.1,0,0.2,0,0.3,0c0.1,0,0.2,0,0.3,0L495.6,363.6z"/>
		<path class="st2" d="M498.1,362.4l1,4.7c0.1,0.5,0.2,1,0.3,1.3c0.1,0.4,0.1,0.7,0.2,1h0c0.1-0.3,0.3-0.6,0.5-0.9
			c0.2-0.3,0.4-0.7,0.6-1.1l2.8-5h1.6l-5.1,8.7h-1.3l-1.9-8.7H498.1z"/>
		<path class="st2" d="M504.7,371.1l1.8-8.7h1.4l-1.8,8.7H504.7z M506.9,360.4l0.3-1.6h1.5l-0.3,1.6H506.9z"/>
		<path class="st2" d="M515.7,363.9c-0.3-0.1-0.6-0.2-1-0.3c-0.4-0.1-0.7-0.1-1-0.1c-0.4,0-0.8,0.1-1.1,0.2
			c-0.3,0.1-0.6,0.3-0.9,0.6c-0.3,0.2-0.5,0.5-0.7,0.8c-0.2,0.3-0.3,0.6-0.4,1c-0.1,0.3-0.2,0.7-0.2,1c-0.1,0.3-0.1,0.6-0.1,0.9
			c0,0.4,0.1,0.8,0.2,1.1c0.1,0.3,0.2,0.5,0.4,0.7c0.2,0.2,0.4,0.3,0.7,0.4c0.3,0.1,0.5,0.1,0.8,0.1c0.4,0,0.9-0.1,1.3-0.2
			s0.8-0.2,1-0.4l-0.3,1.3c-0.1,0.1-0.3,0.1-0.4,0.2c-0.2,0.1-0.4,0.1-0.6,0.2c-0.2,0-0.4,0.1-0.6,0.1c-0.2,0-0.4,0-0.7,0
			c-0.4,0-0.9-0.1-1.3-0.2c-0.4-0.1-0.7-0.3-1.1-0.6c-0.3-0.3-0.5-0.6-0.7-1c-0.2-0.4-0.3-0.9-0.3-1.5c0-0.4,0-0.8,0.1-1.3
			c0.1-0.4,0.2-0.9,0.4-1.3c0.2-0.4,0.4-0.8,0.6-1.2c0.3-0.4,0.6-0.7,0.9-1c0.4-0.3,0.8-0.5,1.2-0.7c0.5-0.2,1-0.3,1.5-0.3
			c0.2,0,0.4,0,0.7,0c0.2,0,0.4,0.1,0.6,0.1c0.2,0,0.4,0.1,0.5,0.2c0.2,0.1,0.3,0.1,0.4,0.2L515.7,363.9z"/>
		<path class="st2" d="M523.7,364.4c0,0.5-0.1,1-0.4,1.4c-0.3,0.4-0.7,0.7-1.2,0.9c-0.5,0.2-1.1,0.4-1.9,0.5
			c-0.7,0.1-1.6,0.2-2.5,0.2c0,0.1,0,0.1,0,0.2c0,0.1,0,0.1,0,0.2c0,0.8,0.2,1.4,0.6,1.7c0.4,0.4,1,0.6,1.8,0.6c0.2,0,0.4,0,0.6,0
			c0.2,0,0.4-0.1,0.7-0.1c0.2-0.1,0.4-0.1,0.6-0.2c0.2-0.1,0.4-0.1,0.6-0.2l-0.3,1.3c-0.3,0.1-0.7,0.3-1.1,0.4
			c-0.4,0.1-0.9,0.1-1.4,0.1c-0.6,0-1.2-0.1-1.6-0.3s-0.8-0.4-1.1-0.7c-0.3-0.3-0.5-0.7-0.6-1.1c-0.1-0.4-0.2-0.9-0.2-1.4
			c0-0.5,0-0.9,0.1-1.4c0.1-0.5,0.2-0.9,0.4-1.3c0.2-0.4,0.4-0.8,0.7-1.2c0.3-0.4,0.6-0.7,0.9-0.9c0.3-0.3,0.7-0.5,1.2-0.6
			c0.4-0.2,0.9-0.2,1.4-0.2c0.4,0,0.7,0,1,0.1c0.3,0.1,0.6,0.2,0.9,0.4c0.3,0.2,0.4,0.4,0.6,0.7C523.6,363.7,523.7,364,523.7,364.4z
			 M517.9,366.1c0.7,0,1.3,0,1.8-0.1c0.5-0.1,1-0.2,1.3-0.3c0.4-0.1,0.6-0.3,0.8-0.5c0.2-0.2,0.3-0.5,0.3-0.8c0-0.1,0-0.3-0.1-0.4
			c-0.1-0.1-0.1-0.2-0.2-0.3c-0.1-0.1-0.2-0.2-0.4-0.2c-0.2-0.1-0.3-0.1-0.6-0.1c-0.3,0-0.7,0.1-1,0.2c-0.3,0.1-0.6,0.3-0.9,0.6
			c-0.3,0.2-0.5,0.5-0.7,0.9C518.2,365.3,518,365.7,517.9,366.1z"/>
	</g>
</g>
</svg>
