<?xml version="1.0" encoding="utf-8"?>
<!-- Generator: Adobe Illustrator 21.0.2, SVG Export Plug-In . SVG Version: 6.00 Build 0)  -->
<svg version="1.1" id="Layer_1" xmlns="http://www.w3.org/2000/svg" xmlns:xlink="http://www.w3.org/1999/xlink" x="0px" y="0px"
	 viewBox="0 0 1440 460" style="enable-background:new 0 0 1440 460;" xml:space="preserve">
<style type="text/css">
	.st0{fill:#0F3C80;}
	.st1{clip-path:url(#SVGID_2_);}
</style>
<g>
	<rect class="st0" width="1440" height="460"/>
</g>
<g>
	<defs>
		<rect id="SVGID_1_" width="1440" height="460"/>
	</defs>
	<clipPath id="SVGID_2_">
		<use xlink:href="#SVGID_1_"  style="overflow:visible;"/>
	</clipPath>
	<g class="st1">
		<g>
			<path class="st0" d="M906.7,24.1c153.2-129.3,99-224.4,99-224.4C928.8-45.5,780.3,10.1,685.7,47.7
				C596.2,83.2,288,154.2,125.3,153.7c-0.1,0-0.2,0-0.3,0H64.7c-26.1,83.5-60.5,167.1-103,250.6H-40
				c-19.8-83.5-31.3-167.1-34.6-250.6H-134c6,95.6,20.3,191.4,42.9,287.3c2.5,12.6,11,19,25.6,19H-26c14,0,23.9-6.2,29.7-18.6
				c21.7-42.9,41.8-85.7,60.3-128.6c2.5-5.7,4.9-11.4,8-16.8C181.8,105.4,722,179.9,906.7,24.1z"/>
		</g>
		<g>
			<path class="st0" d="M534.1,176.4c-278.6,26.1-426.9,99.2-426.9,99.2s110.7-32.2,440-35.9C876.4,236,933.6,49.9,933.6,49.9
				C926.2,60.8,812.6,150.3,534.1,176.4z"/>
		</g>
		<g>
			<path class="st0" d="M475.9,269.1c-242.1-2.2-376.2,47.6-376.2,47.6s98.1-17.8,381.9,8.1c283.7,26,349.4-129.2,349.4-129.2
				C823.6,204.4,717.9,271.3,475.9,269.1z"/>
		</g>
		<g>
			<path class="st0" d="M432.9,343.7C218.2,323,95.3,356.8,95.3,356.8s88.5-8.3,338.3,36.7c249.8,45,320.1-87.6,320.1-87.6
				C746.5,313.1,647.5,364.4,432.9,343.7z"/>
		</g>
		<g>
			<path class="st0" d="M331.7,408.3c-141.3-31.2-226-18.6-226-18.6s59.7,1.7,222.4,51.9c162.7,50.3,220.4-32.4,220.4-32.4
				C543.1,413.4,473,439.6,331.7,408.3z"/>
		</g>
	</g>
</g>
</svg>
