<?xml version="1.0" encoding="utf-8"?>
<!-- Generator: Adobe Illustrator 21.0.2, SVG Export Plug-In . SVG Version: 6.00 Build 0)  -->
<svg version="1.1" id="Layer_1" xmlns="http://www.w3.org/2000/svg" xmlns:xlink="http://www.w3.org/1999/xlink" x="0px" y="0px"
	 viewBox="0 0 841.9 595.3" style="enable-background:new 0 0 841.9 595.3;" xml:space="preserve">
<path d="M349.3,273.5c0,1.8-0.9,2.7-2.7,2.7h-13.4v45.6c0,1.8-0.9,2.7-2.7,2.7c-1.8,0-2.7-0.9-2.7-2.7v-45.6h-13.4
	c-1.8,0-2.7-0.9-2.7-2.7c0-1.8,0.9-2.7,2.7-2.7h32.1C348.4,270.8,349.3,271.7,349.3,273.5z"/>
<path d="M395.8,321.9c0,0.7-0.3,1.3-0.9,1.8c-0.6,0.5-1.2,0.8-1.9,0.8c-1.1,0-1.8-0.5-2.3-1.5l-7.4-14.7c-0.3,0.1-0.6,0.1-1,0.1
	h-26.7c-0.3,0-0.7,0-1-0.1l-7.4,14.7c-0.5,1-1.3,1.5-2.3,1.5c-0.7,0-1.4-0.3-2-0.8c-0.6-0.5-0.9-1.1-0.9-1.8c0-0.4,0.1-0.9,0.3-1.3
	l23.9-47.7c0.6-1.3,1.5-2,2.6-2c1.1,0,2,0.7,2.6,2l23.9,47.8C395.7,321,395.8,321.4,395.8,321.9z M380.6,303L369,279.6L357.2,303
	H380.6z"/>
<path d="M426.7,308.4c0,4.4-1.6,8.2-4.7,11.4s-6.9,4.7-11.4,4.7c-2.8,0-5.5-0.7-8-2.2c-2.6-1.5-4.6-3.4-5.9-5.9
	c-0.3-0.5-0.4-1-0.4-1.4c0-0.7,0.3-1.4,0.9-1.9c0.6-0.5,1.2-0.8,2-0.8c0.8,0,1.5,0.5,2.2,1.4c0.3,0.4,0.7,1,1.3,1.8
	c2.1,2.4,4.7,3.6,8,3.6c3,0,5.5-1.1,7.6-3.2s3.2-4.6,3.2-7.6s-1.1-5.5-3.2-7.6s-4.6-3.2-7.6-3.2c-3.7,0-6.8-1.3-9.5-3.9
	c-2.6-2.6-3.9-5.8-3.9-9.5c0-3.7,1.3-6.9,3.9-9.5c2.6-2.6,5.8-3.9,9.5-3.9c2.3,0,4.6,0.6,6.7,1.8c2.2,1.2,3.8,2.8,4.8,4.8
	c0.3,0.5,0.4,1,0.4,1.4c0,0.7-0.3,1.3-0.8,1.9c-0.6,0.5-1.2,0.8-2,0.8c-0.6,0-1.7-0.9-3.4-2.7c-1.6-1.8-3.6-2.7-5.8-2.7
	c-2.2,0-4.1,0.8-5.7,2.4c-1.6,1.6-2.4,3.5-2.4,5.7c0,2.2,0.8,4.1,2.4,5.7c1.6,1.6,3.5,2.4,5.7,2.4c4.4,0,8.2,1.6,11.4,4.7
	C425.2,300.2,426.7,303.9,426.7,308.4z"/>
<path d="M475.2,314.8c0,0.6-0.3,1.2-0.8,1.8c-2.1,2.4-4.9,4.4-8.6,5.8c-3.5,1.4-6.9,2-10.3,2c-7.4,0-13.7-2.6-19-7.9
	c-5.2-5.2-7.9-11.6-7.9-19c0-7.4,2.6-13.7,7.9-18.9c5.2-5.2,11.6-7.9,18.9-7.9c3.4,0,6.8,0.7,10.3,2c3.7,1.5,6.6,3.4,8.6,5.8
	c0.6,0.7,0.8,1.3,0.8,1.9c0,0.7-0.3,1.4-0.8,1.9c-0.6,0.6-1.2,0.8-1.9,0.8c-0.6,0-1.2-0.3-1.8-0.9c-0.5-0.5-1.4-1.2-2.5-2.1
	c-3.6-2.8-7.8-4.2-12.7-4.2c-5.9,0-11,2.1-15.2,6.3s-6.3,9.2-6.3,15.2c0,5.9,2.1,11,6.3,15.2s9.2,6.3,15.2,6.3c4.8,0,9-1.4,12.7-4.1
	c0.5-0.5,1.4-1.2,2.5-2.1c0.7-0.6,1.3-0.8,1.8-0.8c0.7,0,1.4,0.3,1.9,0.8S475.2,314,475.2,314.8z"/>
<path d="M483.3,321.1c-0.4,0.2-0.7,0.5-0.9,0.9l-12.7,18.6c-1.1,1.6-0.7,3.8,0.9,4.9c0.6,0.4,1.3,0.6,2,0.6c1.1,0,2.2-0.5,2.9-1.5
	l12.7-18.6c0.2-0.4,0.4-0.7,0.5-1.1C486.8,323.8,485,322.6,483.3,321.1z"/>
<path d="M530.1,297.6c0,7.4-2.6,13.7-7.9,19c-5.2,5.2-11.6,7.9-18.9,7.9c-7.4,0-13.7-2.6-18.9-7.9c-5.3-5.2-7.9-11.6-7.9-19
	c0-7.4,2.6-13.7,7.9-18.9c5.2-5.2,11.6-7.9,18.9-7.9c7.4,0,13.7,2.6,18.9,7.9S530.1,290.2,530.1,297.6z M524.7,297.6
	c0-5.9-2.1-11-6.3-15.2s-9.3-6.3-15.2-6.3c-5.9,0-11,2.1-15.2,6.3c-4.2,4.2-6.3,9.2-6.3,15.2c0,5.9,2.1,11,6.3,15.2
	c4.2,4.2,9.3,6.3,15.2,6.3c5.9,0,11-2.1,15.2-6.3S524.7,303.6,524.7,297.6z"/>
</svg>
